<svg width="31" height="32" viewBox="0 0 31 32" fill="none" xmlns="http://www.w3.org/2000/svg">
<path d="M5.91367 31.05C5.61367 31.05 5.34701 30.95 5.11367 30.75C4.91367 30.5167 4.83034 30.25 4.86367 29.95L5.66367 24.85H1.71367C1.38034 24.85 1.09701 24.75 0.863672 24.55C0.663672 24.3167 0.563672 24.0333 0.563672 23.7V20.3C0.563672 19.9667 0.663672 19.7 0.863672 19.5C1.09701 19.2667 1.38034 19.15 1.71367 19.15H6.46367L7.51367 12.15H3.01367C2.68034 12.15 2.39701 12.05 2.16367 11.85C1.96367 11.6167 1.86367 11.3333 1.86367 11V7.6C1.86367 7.26667 1.96367 7 2.16367 6.8C2.39701 6.56667 2.68034 6.45 3.01367 6.45H8.36367L9.16367 1.3C9.23034 1.03333 9.34701 0.799999 9.51367 0.6C9.71367 0.366666 9.98034 0.249998 10.3137 0.249998H13.7137C14.0137 0.249998 14.2637 0.366666 14.4637 0.6C14.697 0.799999 14.797 1.05 14.7637 1.35L14.0137 6.45H19.7137L20.5137 1.3C20.5803 1.03333 20.697 0.799999 20.8637 0.6C21.0637 0.366666 21.3303 0.249998 21.6637 0.249998H25.0637C25.3637 0.249998 25.6137 0.366666 25.8137 0.6C26.047 0.799999 26.147 1.05 26.1137 1.35L25.3637 6.45H29.2137C29.5803 6.45 29.8637 6.56667 30.0637 6.8C30.297 7 30.4137 7.26667 30.4137 7.6V11C30.4137 11.3333 30.297 11.6167 30.0637 11.85C29.8637 12.05 29.5803 12.15 29.2137 12.15H24.5137L23.5137 19.15H27.9137C28.2803 19.15 28.5637 19.2667 28.7637 19.5C28.997 19.7 29.1137 19.9667 29.1137 20.3V23.7C29.1137 24.0333 28.997 24.3167 28.7637 24.55C28.5637 24.75 28.2803 24.85 27.9137 24.85H22.6137L21.8637 30C21.7637 30.7 21.3637 31.05 20.6637 31.05H17.2637C16.9637 31.05 16.7137 30.95 16.5137 30.75C16.3137 30.5167 16.2137 30.25 16.2137 29.95L17.0137 24.85H11.2637L10.5137 30C10.4137 30.7 10.0137 31.05 9.31367 31.05H5.91367ZM12.1637 19.15H17.8137L18.8637 12.15H13.1637L12.1637 19.15Z" fill="#EF233C"/>
<path d="M5.11367 30.75L4.35442 31.4008L4.40448 31.4592L4.46288 31.5093L5.11367 30.75ZM4.86367 29.95L3.87575 29.795L3.87227 29.8172L3.86979 29.8396L4.86367 29.95ZM5.66367 24.85L6.65159 25.005L6.83276 23.85H5.66367V24.85ZM0.863672 24.55L0.104415 25.2008L0.154476 25.2592L0.21288 25.3093L0.863672 24.55ZM0.863672 19.5L0.156565 18.7929L0.156564 18.7929L0.863672 19.5ZM6.46367 19.15V20.15H7.32486L7.45261 19.2983L6.46367 19.15ZM7.51367 12.15L8.50261 12.2983L8.67486 11.15H7.51367V12.15ZM2.16367 11.85L1.40442 12.5008L1.45448 12.5592L1.51288 12.6093L2.16367 11.85ZM2.16367 6.8L1.45657 6.09289L1.45656 6.09289L2.16367 6.8ZM8.36367 6.45V7.45H9.22033L9.35182 6.6035L8.36367 6.45ZM9.16367 1.3L8.19353 1.05746L8.1825 1.10157L8.17552 1.1465L9.16367 1.3ZM9.51367 0.6L8.75434 -0.0508525L8.74545 -0.0401852L9.51367 0.6ZM14.4637 0.6L13.7044 1.25079L13.7545 1.3092L13.8129 1.35926L14.4637 0.6ZM14.7637 1.35L15.753 1.49549L15.7556 1.478L15.7576 1.46043L14.7637 1.35ZM14.0137 6.45L13.0243 6.30451L12.8559 7.45H14.0137V6.45ZM19.7137 6.45V7.45H20.5703L20.7018 6.6035L19.7137 6.45ZM20.5137 1.3L19.5435 1.05746L19.5325 1.10157L19.5255 1.1465L20.5137 1.3ZM20.8637 0.6L20.1043 -0.0508534L20.0955 -0.0401852L20.8637 0.6ZM25.8137 0.6L25.0544 1.25079L25.1045 1.3092L25.1629 1.35926L25.8137 0.6ZM26.1137 1.35L27.103 1.49549L27.1056 1.478L27.1076 1.46043L26.1137 1.35ZM25.3637 6.45L24.3743 6.30451L24.2059 7.45H25.3637V6.45ZM30.0637 6.8L29.3044 7.45079L29.3545 7.50919L29.4129 7.55925L30.0637 6.8ZM30.0637 11.85L30.7708 12.5571L30.7708 12.5571L30.0637 11.85ZM24.5137 12.15V11.15H23.6464L23.5237 12.0086L24.5137 12.15ZM23.5137 19.15L22.5237 19.0086L22.3607 20.15H23.5137V19.15ZM28.7637 19.5L28.0044 20.1508L28.0545 20.2092L28.1129 20.2593L28.7637 19.5ZM28.7637 24.55L28.0566 23.8429L28.0566 23.8429L28.7637 24.55ZM22.6137 24.85V23.85H21.7488L21.6241 24.7059L22.6137 24.85ZM21.8637 30L20.8741 29.8559L20.8737 29.8586L21.8637 30ZM16.5137 30.75L15.7544 31.4008L15.7794 31.43L15.8066 31.4571L16.5137 30.75ZM16.2137 29.95L15.2258 29.795L15.2137 29.872V29.95H16.2137ZM17.0137 24.85L18.0016 25.005L18.1828 23.85H17.0137V24.85ZM11.2637 24.85V23.85H10.3988L10.2741 24.7059L11.2637 24.85ZM10.5137 30L9.52411 29.8559L9.52372 29.8586L10.5137 30ZM12.1637 19.15L11.1737 19.0086L11.0107 20.15H12.1637V19.15ZM17.8137 19.15V20.15H18.6749L18.8026 19.2983L17.8137 19.15ZM18.8637 12.15L19.8526 12.2983L20.0249 11.15H18.8637V12.15ZM13.1637 12.15V11.15H12.2964L12.1737 12.0086L13.1637 12.15ZM5.91367 30.05C5.85868 30.05 5.82139 30.0395 5.76446 29.9907L4.46288 31.5093C4.87262 31.8605 5.36866 32.05 5.91367 32.05V30.05ZM5.87293 30.0992C5.86196 30.0864 5.85712 30.0785 5.85557 30.0757C5.85414 30.0732 5.85473 30.0738 5.85565 30.0767C5.85659 30.0797 5.85674 30.0816 5.85668 30.0809C5.8566 30.0799 5.8561 30.0736 5.85756 30.0604L3.86979 29.8396C3.80525 30.4205 3.97787 30.9615 4.35442 31.4008L5.87293 30.0992ZM5.85159 30.105L6.65159 25.005L4.67575 24.695L3.87575 29.795L5.85159 30.105ZM5.66367 23.85H1.71367V25.85H5.66367V23.85ZM1.71367 23.85C1.59726 23.85 1.55067 23.8218 1.51446 23.7907L0.21288 25.3093C0.64334 25.6782 1.16341 25.85 1.71367 25.85V23.85ZM1.62293 23.8992C1.59189 23.863 1.56367 23.8164 1.56367 23.7H-0.436328C-0.436328 24.2503 -0.26455 24.7703 0.104415 25.2008L1.62293 23.8992ZM1.56367 23.7V20.3H-0.436328V23.7H1.56367ZM1.56367 20.3C1.56367 20.2332 1.57361 20.2048 1.575 20.2011C1.57577 20.1991 1.57547 20.2004 1.5736 20.2033C1.57172 20.2062 1.57029 20.2076 1.57078 20.2071L0.156564 18.7929C-0.26417 19.2136 -0.436328 19.7524 -0.436328 20.3H1.56367ZM1.57078 20.2071C1.61445 20.1634 1.64253 20.15 1.71367 20.15V18.15C1.11815 18.15 0.579565 18.3699 0.156565 18.7929L1.57078 20.2071ZM1.71367 20.15H6.46367V18.15H1.71367V20.15ZM7.45261 19.2983L8.50261 12.2983L6.52474 12.0017L5.47474 19.0017L7.45261 19.2983ZM7.51367 11.15H3.01367V13.15H7.51367V11.15ZM3.01367 11.15C2.89726 11.15 2.85067 11.1218 2.81446 11.0907L1.51288 12.6093C1.94334 12.9782 2.46341 13.15 3.01367 13.15V11.15ZM2.92293 11.1992C2.89189 11.163 2.86367 11.1164 2.86367 11H0.863672C0.863672 11.5503 1.03545 12.0703 1.40442 12.5008L2.92293 11.1992ZM2.86367 11V7.6H0.863672V11H2.86367ZM2.86367 7.6C2.86367 7.5332 2.87361 7.50483 2.875 7.50112C2.87577 7.49908 2.87547 7.50035 2.8736 7.50325C2.87173 7.50617 2.87029 7.5076 2.87078 7.5071L1.45656 6.09289C1.03583 6.51363 0.863672 7.05241 0.863672 7.6H2.86367ZM2.87078 7.50711C2.91444 7.46344 2.94253 7.45 3.01367 7.45V5.45C2.41815 5.45 1.87957 5.66989 1.45657 6.09289L2.87078 7.50711ZM3.01367 7.45H8.36367V5.45H3.01367V7.45ZM9.35182 6.6035L10.1518 1.4535L8.17552 1.1465L7.37552 6.2965L9.35182 6.6035ZM10.1338 1.54254C10.1661 1.41357 10.217 1.31809 10.2819 1.24019L8.74545 -0.0401852C8.47704 0.281912 8.29462 0.653091 8.19353 1.05746L10.1338 1.54254ZM10.2729 1.25079C10.278 1.24489 10.2792 1.24457 10.2762 1.24687C10.2729 1.2493 10.2686 1.25185 10.2645 1.25366C10.2605 1.25539 10.2606 1.25474 10.267 1.25349C10.2738 1.25218 10.2887 1.25 10.3137 1.25V-0.750002C9.71637 -0.750002 9.16187 -0.526156 8.75441 -0.0507897L10.2729 1.25079ZM10.3137 1.25H13.7137V-0.750002H10.3137V1.25ZM13.7137 1.25C13.7236 1.25 13.7257 1.25093 13.7218 1.25011C13.7177 1.24923 13.7109 1.24724 13.7033 1.24368C13.6957 1.24014 13.6912 1.23692 13.6904 1.23622C13.6897 1.23572 13.6947 1.23947 13.7044 1.25079L15.2229 -0.0507888C14.8383 -0.499558 14.3137 -0.750002 13.7137 -0.750002V1.25ZM13.8129 1.35926C13.8245 1.36922 13.8031 1.35367 13.7852 1.30889C13.7771 1.28855 13.7727 1.26958 13.7709 1.2547C13.7692 1.24034 13.7704 1.23448 13.7698 1.23957L15.7576 1.46043C15.8282 0.824541 15.5935 0.251355 15.1145 -0.159259L13.8129 1.35926ZM13.7743 1.20451L13.0243 6.30451L15.003 6.59549L15.753 1.49549L13.7743 1.20451ZM14.0137 7.45H19.7137V5.45H14.0137V7.45ZM20.7018 6.6035L21.5018 1.4535L19.5255 1.1465L18.7255 6.2965L20.7018 6.6035ZM21.4838 1.54254C21.5161 1.41357 21.567 1.31809 21.6319 1.24019L20.0955 -0.0401852C19.827 0.281912 19.6446 0.653091 19.5435 1.05746L21.4838 1.54254ZM21.6229 1.25079C21.628 1.24489 21.6292 1.24457 21.6262 1.24687C21.6229 1.2493 21.6186 1.25185 21.6145 1.25366C21.6105 1.25539 21.6106 1.25474 21.617 1.25349C21.6238 1.25218 21.6387 1.25 21.6637 1.25V-0.750002C21.0664 -0.750002 20.5119 -0.526156 20.1044 -0.0507907L21.6229 1.25079ZM21.6637 1.25H25.0637V-0.750002H21.6637V1.25ZM25.0637 1.25C25.0736 1.25 25.0757 1.25093 25.0718 1.25011C25.0677 1.24923 25.0609 1.24724 25.0533 1.24368C25.0457 1.24014 25.0412 1.23692 25.0404 1.23622C25.0397 1.23572 25.0447 1.23947 25.0544 1.25079L26.5729 -0.0507888C26.1883 -0.499558 25.6637 -0.750002 25.0637 -0.750002V1.25ZM25.1629 1.35926C25.1745 1.36923 25.1531 1.35367 25.1352 1.30889C25.1271 1.28855 25.1227 1.26958 25.1209 1.25471C25.1192 1.24034 25.1204 1.23449 25.1198 1.23957L27.1076 1.46043C27.1782 0.824539 26.9435 0.251354 26.4645 -0.159259L25.1629 1.35926ZM25.1243 1.20451L24.3743 6.30451L26.353 6.59549L27.103 1.49549L25.1243 1.20451ZM25.3637 7.45H29.2137V5.45H25.3637V7.45ZM29.2137 7.45C29.2525 7.45 29.2794 7.4531 29.2964 7.45615C29.3131 7.45914 29.3202 7.46207 29.3204 7.46218C29.3207 7.46227 29.3197 7.46189 29.3179 7.46088C29.316 7.45986 29.3139 7.45849 29.3115 7.45682C29.3064 7.45312 29.304 7.45032 29.3044 7.45079L30.8229 6.14921C30.396 5.65112 29.8103 5.45 29.2137 5.45V7.45ZM29.4129 7.55925C29.4188 7.5643 29.4191 7.56557 29.4168 7.5625C29.4144 7.55926 29.4118 7.55494 29.41 7.55082C29.4083 7.54684 29.4089 7.54695 29.4102 7.55337C29.4115 7.56011 29.4137 7.57501 29.4137 7.6H31.4137C31.4137 7.0027 31.1898 6.4482 30.7145 6.04074L29.4129 7.55925ZM29.4137 7.6V11H31.4137V7.6H29.4137ZM29.4137 11C29.4137 11.0711 29.4002 11.0992 29.3566 11.1429L30.7708 12.5571C31.1938 12.1341 31.4137 11.5955 31.4137 11H29.4137ZM29.3566 11.1429C29.3687 11.1308 29.3782 11.1285 29.3684 11.132C29.3542 11.137 29.3078 11.15 29.2137 11.15V13.15C29.7635 13.15 30.3323 12.9956 30.7708 12.5571L29.3566 11.1429ZM29.2137 11.15H24.5137V13.15H29.2137V11.15ZM23.5237 12.0086L22.5237 19.0086L24.5036 19.2914L25.5036 12.2914L23.5237 12.0086ZM23.5137 20.15H27.9137V18.15H23.5137V20.15ZM27.9137 20.15C27.9525 20.15 27.9794 20.1531 27.9964 20.1561C28.0131 20.1591 28.0202 20.1621 28.0204 20.1622C28.0207 20.1623 28.0197 20.1619 28.0179 20.1609C28.016 20.1599 28.0138 20.1585 28.0115 20.1568C28.0064 20.1531 28.004 20.1503 28.0044 20.1508L29.5229 18.8492C29.096 18.3511 28.5103 18.15 27.9137 18.15V20.15ZM28.1129 20.2593C28.1188 20.2643 28.1191 20.2656 28.1168 20.2625C28.1144 20.2593 28.1118 20.2549 28.11 20.2508C28.1083 20.2468 28.1089 20.247 28.1102 20.2534C28.1115 20.2601 28.1137 20.275 28.1137 20.3H30.1137C30.1137 19.7027 29.8898 19.1482 29.4145 18.7407L28.1129 20.2593ZM28.1137 20.3V23.7H30.1137V20.3H28.1137ZM28.1137 23.7C28.1137 23.7711 28.1002 23.7992 28.0566 23.8429L29.4708 25.2571C29.8938 24.8341 30.1137 24.2955 30.1137 23.7H28.1137ZM28.0566 23.8429C28.0687 23.8308 28.0782 23.8285 28.0684 23.832C28.0542 23.837 28.0078 23.85 27.9137 23.85V25.85C28.4636 25.85 29.0323 25.6956 29.4708 25.2571L28.0566 23.8429ZM27.9137 23.85H22.6137V25.85H27.9137V23.85ZM21.6241 24.7059L20.8741 29.8559L22.8532 30.1441L23.6032 24.9941L21.6241 24.7059ZM20.8737 29.8586C20.8462 30.0509 20.798 30.0631 20.8302 30.0349C20.8637 30.0056 20.8496 30.05 20.6637 30.05V32.05C21.1778 32.05 21.7136 31.9194 22.1472 31.5401C22.5794 31.1619 22.7811 30.6491 22.8536 30.1414L20.8737 29.8586ZM20.6637 30.05H17.2637V32.05H20.6637V30.05ZM17.2637 30.05C17.2443 30.05 17.2325 30.0484 17.2269 30.0474C17.2215 30.0464 17.2206 30.0457 17.2226 30.0465C17.2246 30.0473 17.2266 30.0485 17.2277 30.0492C17.2287 30.0499 17.2263 30.0485 17.2208 30.0429L15.8066 31.4571C16.2064 31.8569 16.7163 32.05 17.2637 32.05V30.05ZM17.2729 30.0992C17.2241 30.0423 17.2137 30.005 17.2137 29.95H15.2137C15.2137 30.495 15.4032 30.9911 15.7544 31.4008L17.2729 30.0992ZM17.2016 30.105L18.0016 25.005L16.0258 24.695L15.2258 29.795L17.2016 30.105ZM17.0137 23.85H11.2637V25.85H17.0137V23.85ZM10.2741 24.7059L9.52411 29.8559L11.5032 30.1441L12.2532 24.9941L10.2741 24.7059ZM9.52372 29.8586C9.49625 30.0509 9.44795 30.0631 9.48017 30.0349C9.51373 30.0056 9.49957 30.05 9.31367 30.05V32.05C9.82777 32.05 10.3636 31.9194 10.7972 31.5401C11.2294 31.1619 11.4311 30.6491 11.5036 30.1414L9.52372 29.8586ZM9.31367 30.05H5.91367V32.05H9.31367V30.05ZM12.1637 20.15H17.8137V18.15H12.1637V20.15ZM18.8026 19.2983L19.8526 12.2983L17.8747 12.0017L16.8247 19.0017L18.8026 19.2983ZM18.8637 11.15H13.1637V13.15H18.8637V11.15ZM12.1737 12.0086L11.1737 19.0086L13.1536 19.2914L14.1536 12.2914L12.1737 12.0086Z" fill="#EF233C"/>
</svg>
