<svg width="28" height="29" viewBox="0 0 28 29" fill="none" xmlns="http://www.w3.org/2000/svg">
<path d="M8.72832 28.77C7.54832 28.77 6.56832 28.58 5.78832 28.2C5.02832 27.82 4.42832 27.25 3.98832 26.49C3.54832 25.75 3.23832 24.85 3.05832 23.79C2.87832 22.71 2.78832 21.47 2.78832 20.07C2.78832 19.03 2.64832 18.23 2.36832 17.67C2.08832 17.09 1.66832 16.62 1.10832 16.26L0.89832 16.17C0.39832 15.85 0.14832 15.47 0.14832 15.03V14.43C0.14832 13.99 0.39832 13.61 0.89832 13.29L1.13832 13.17C1.69832 12.79 2.10832 12.33 2.36832 11.79C2.64832 11.23 2.78832 10.43 2.78832 9.39C2.78832 7.99 2.87832 6.76 3.05832 5.7C3.23832 4.62 3.54832 3.71 3.98832 2.97C4.42832 2.23 5.02832 1.67 5.78832 1.29C6.56832 0.909999 7.54832 0.719999 8.72832 0.719999H8.87832C9.07832 0.719999 9.23832 0.779999 9.35832 0.899999C9.47832 1.02 9.53832 1.18 9.53832 1.38V2.49C9.53832 2.69 9.47832 2.85 9.35832 2.97C9.23832 3.09 9.08832 3.15 8.90832 3.15H8.75832C7.79832 3.17 7.07832 3.42 6.59832 3.9C6.13832 4.36 5.82832 5.08 5.66832 6.06C5.52832 7.04 5.45832 8.34 5.45832 9.96C5.45832 11.16 5.26832 12.15 4.88832 12.93C4.50832 13.71 3.94832 14.31 3.20832 14.73C3.70832 14.99 4.11832 15.35 4.43832 15.81C4.77832 16.25 5.02832 16.78 5.18832 17.4C5.36832 18.02 5.45832 18.72 5.45832 19.5C5.45832 21.1 5.52832 22.4 5.66832 23.4C5.82832 24.4 6.13832 25.13 6.59832 25.59C7.07832 26.05 7.79832 26.3 8.75832 26.34H8.90832C9.08832 26.34 9.23832 26.4 9.35832 26.52C9.47832 26.64 9.53832 26.8 9.53832 27V28.11C9.53832 28.31 9.47832 28.47 9.35832 28.59C9.23832 28.71 9.07832 28.77 8.87832 28.77H8.72832ZM19.2668 0.719999C20.4468 0.719999 21.4168 0.909999 22.1768 1.29C22.9568 1.67 23.5668 2.23 24.0068 2.97C24.4468 3.71 24.7568 4.62 24.9368 5.7C25.1368 6.78 25.2368 8.02 25.2368 9.42C25.2368 10.46 25.3668 11.26 25.6268 11.82C25.9068 12.38 26.3268 12.84 26.8868 13.2L27.0968 13.32C27.5968 13.64 27.8468 14.02 27.8468 14.46V15.06C27.8468 15.5 27.5968 15.87 27.0968 16.17L26.8568 16.32C26.2968 16.68 25.8868 17.14 25.6268 17.7C25.3668 18.26 25.2368 19.06 25.2368 20.1C25.2368 21.5 25.1368 22.74 24.9368 23.82C24.7568 24.88 24.4468 25.77 24.0068 26.49C23.5668 27.23 22.9568 27.79 22.1768 28.17C21.4168 28.57 20.4568 28.77 19.2968 28.77H19.1168C18.9168 28.77 18.7568 28.71 18.6368 28.59C18.5168 28.47 18.4568 28.31 18.4568 28.11V27C18.4568 26.8 18.5168 26.64 18.6368 26.52C18.7568 26.4 18.9168 26.34 19.1168 26.34H19.2368C20.2168 26.3 20.9368 26.05 21.3968 25.59C21.8768 25.13 22.1868 24.41 22.3268 23.43C22.4868 22.43 22.5668 21.13 22.5668 19.53C22.5668 18.31 22.7468 17.31 23.1068 16.53C23.4868 15.75 24.0468 15.16 24.7868 14.76C24.3068 14.46 23.8968 14.09 23.5568 13.65C23.2368 13.21 22.9868 12.69 22.8068 12.09C22.6468 11.47 22.5668 10.77 22.5668 9.99C22.5668 8.37 22.4868 7.07 22.3268 6.09C22.1868 5.09 21.8868 4.36 21.4268 3.9C20.9668 3.42 20.2468 3.17 19.2668 3.15H19.1168C18.9168 3.15 18.7568 3.09 18.6368 2.97C18.5168 2.85 18.4568 2.69 18.4568 2.49V1.38C18.4568 1.18 18.5168 1.02 18.6368 0.899999C18.7568 0.779999 18.9168 0.719999 19.1168 0.719999H19.2668Z" fill="#EF233C"/>
<path d="M5.78832 28.2L5.34108 29.0945L5.35035 29.099L5.78832 28.2ZM3.98832 26.49L4.85381 25.9889L4.84786 25.9789L3.98832 26.49ZM3.05832 23.79L2.07192 23.9544L2.07243 23.9574L3.05832 23.79ZM2.36832 17.67L1.46768 18.1048L1.47389 18.1172L2.36832 17.67ZM1.10832 16.26L1.64908 15.4188L1.57891 15.3737L1.50224 15.3409L1.10832 16.26ZM0.89832 16.17L0.359267 17.0123L0.428667 17.0567L0.504402 17.0891L0.89832 16.17ZM0.89832 13.29L0.451106 12.3956L0.403807 12.4192L0.359267 12.4477L0.89832 13.29ZM1.13832 13.17L1.58553 14.0644L1.6449 14.0347L1.69982 13.9975L1.13832 13.17ZM2.36832 11.79L1.47389 11.3428L1.47056 11.3495L1.46732 11.3562L2.36832 11.79ZM3.05832 5.7L4.04421 5.86742L4.04471 5.8644L3.05832 5.7ZM5.78832 1.29L5.35033 0.390962L5.34111 0.395572L5.78832 1.29ZM9.35832 0.899999L10.0654 0.192892L10.0654 0.19289L9.35832 0.899999ZM9.35832 2.97L10.0654 3.67711L10.0654 3.67711L9.35832 2.97ZM8.75832 3.15V2.15H8.7479L8.73749 2.15022L8.75832 3.15ZM6.59832 3.9L7.30543 4.60711L6.59832 3.9ZM5.66832 6.06L4.68139 5.89887L4.67978 5.90871L4.67837 5.91858L5.66832 6.06ZM4.88832 12.93L3.98933 12.492V12.492L4.88832 12.93ZM3.20832 14.73L2.71472 13.8603L1.11469 14.7684L2.74697 15.6172L3.20832 14.73ZM4.43832 15.81L3.61742 16.3811L3.63172 16.4016L3.64704 16.4214L4.43832 15.81ZM5.18832 17.4L4.22004 17.6499L4.22379 17.6644L4.22797 17.6788L5.18832 17.4ZM5.66832 23.4L4.67798 23.5386L4.67934 23.5483L4.68088 23.558L5.66832 23.4ZM6.59832 25.59L5.89121 26.2971L5.89874 26.3046L5.90642 26.312L6.59832 25.59ZM8.75832 26.34L8.71669 27.3391L8.7375 27.34H8.75832V26.34ZM9.35832 26.52L10.0654 25.8129L10.0654 25.8129L9.35832 26.52ZM9.35832 28.59L10.0654 29.2971L10.0654 29.2971L9.35832 28.59ZM8.72832 27.77C7.6483 27.77 6.8299 27.5951 6.22629 27.301L5.35035 29.099C6.30674 29.5649 7.44834 29.77 8.72832 29.77V27.77ZM6.23553 27.3056C5.65649 27.0161 5.19927 26.5858 4.85375 25.989L3.12289 26.991C3.65737 27.9142 4.40015 28.6239 5.34111 29.0944L6.23553 27.3056ZM4.84786 25.9789C4.48426 25.3674 4.20854 24.5903 4.04421 23.6226L2.07243 23.9574C2.2681 25.1097 2.61239 26.1326 3.12878 27.0011L4.84786 25.9789ZM4.04471 23.6256C3.87586 22.6125 3.78832 21.4293 3.78832 20.07H1.78832C1.78832 21.5107 1.88078 22.8075 2.07193 23.9544L4.04471 23.6256ZM3.78832 20.07C3.78832 18.9649 3.64359 17.9845 3.26275 17.2228L1.47389 18.1172C1.65305 18.4755 1.78832 19.0951 1.78832 20.07H3.78832ZM3.26887 17.2353C2.90592 16.4834 2.3587 15.875 1.64908 15.4188L0.567563 17.1012C0.977938 17.365 1.27072 17.6966 1.46777 18.1047L3.26887 17.2353ZM1.50224 15.3409L1.29224 15.2509L0.504402 17.0891L0.714402 17.1791L1.50224 15.3409ZM1.43737 15.3277C1.27112 15.2213 1.19938 15.1382 1.17124 15.0954C1.14977 15.0627 1.14832 15.0478 1.14832 15.03H-0.85168C-0.85168 15.9251 -0.316441 16.5798 0.359267 17.0123L1.43737 15.3277ZM1.14832 15.03V14.43H-0.85168V15.03H1.14832ZM1.14832 14.43C1.14832 14.4122 1.14977 14.3972 1.17124 14.3646C1.19938 14.3218 1.27112 14.2387 1.43737 14.1323L0.359267 12.4477C-0.316441 12.8802 -0.85168 13.5349 -0.85168 14.43H1.14832ZM1.34553 14.1844L1.58553 14.0644L0.691106 12.2756L0.451106 12.3956L1.34553 14.1844ZM1.69982 13.9975C2.38649 13.5315 2.92335 12.9424 3.26932 12.2238L1.46732 11.3562C1.29329 11.7176 1.01015 12.0485 0.576819 12.3425L1.69982 13.9975ZM3.26275 12.2372C3.64359 11.4755 3.78832 10.4951 3.78832 9.39H1.78832C1.78832 10.3649 1.65305 10.9845 1.47389 11.3428L3.26275 12.2372ZM3.78832 9.39C3.78832 8.03033 3.87592 6.85847 4.04421 5.86741L2.07243 5.53259C1.88073 6.66153 1.78832 7.94967 1.78832 9.39H3.78832ZM4.04471 5.8644C4.20962 4.87497 4.48593 4.08976 4.84786 3.48107L3.12878 2.45892C2.61071 3.33023 2.26702 4.36502 2.07193 5.5356L4.04471 5.8644ZM4.84786 3.48107C5.19134 2.9034 5.64924 2.47758 6.23553 2.18443L5.34111 0.395572C4.4074 0.862423 3.6653 1.5566 3.12878 2.45892L4.84786 3.48107ZM6.22629 2.18899C6.8299 1.89492 7.6483 1.72 8.72832 1.72V-0.280001C7.44834 -0.280001 6.30674 -0.0749228 5.35035 0.391009L6.22629 2.18899ZM8.72832 1.72H8.87832V-0.280001H8.72832V1.72ZM8.87832 1.72C8.87846 1.72 8.84683 1.71994 8.7972 1.70133C8.74449 1.68156 8.69287 1.64877 8.65122 1.60711L10.0654 0.19289C9.72469 -0.147843 9.29258 -0.280001 8.87832 -0.280001V1.72ZM8.65121 1.60711C8.60955 1.56544 8.57676 1.51383 8.55699 1.46112C8.53838 1.41149 8.53832 1.37986 8.53832 1.38H10.5383C10.5383 0.965746 10.4062 0.533628 10.0654 0.192892L8.65121 1.60711ZM8.53832 1.38V2.49H10.5383V1.38H8.53832ZM8.53832 2.49C8.53832 2.49014 8.53838 2.45851 8.55699 2.40888C8.57676 2.35617 8.60955 2.30455 8.65121 2.26289L10.0654 3.67711C10.4062 3.33637 10.5383 2.90425 10.5383 2.49H8.53832ZM8.65122 2.26289C8.68206 2.23205 8.72739 2.19934 8.78443 2.17652C8.84031 2.15417 8.8856 2.15 8.90832 2.15V4.15C9.33568 4.15 9.74563 3.9969 10.0654 3.67711L8.65122 2.26289ZM8.90832 2.15H8.75832V4.15H8.90832V2.15ZM8.73749 2.15022C7.62696 2.17335 6.61763 2.46648 5.89121 3.19289L7.30543 4.60711C7.53901 4.37352 7.96968 4.16665 8.77915 4.14978L8.73749 2.15022ZM5.89121 3.19289C5.22358 3.86053 4.85846 4.81432 4.68139 5.89887L6.65525 6.22113C6.79819 5.34567 7.05307 4.85947 7.30543 4.60711L5.89121 3.19289ZM4.67837 5.91858C4.52883 6.96538 4.45832 8.31838 4.45832 9.96H6.45832C6.45832 8.36162 6.52781 7.11462 6.65827 6.20142L4.67837 5.91858ZM4.45832 9.96C4.45832 11.063 4.28244 11.8904 3.98933 12.492L5.78731 13.368C6.2542 12.4096 6.45832 11.257 6.45832 9.96H4.45832ZM3.98933 12.492C3.69591 13.0943 3.27545 13.5421 2.71472 13.8603L3.70193 15.5997C4.6212 15.0779 5.32073 14.3257 5.78731 13.368L3.98933 12.492ZM2.74697 15.6172C3.10414 15.8029 3.39045 16.0548 3.61742 16.3811L5.25923 15.2389C4.84619 14.6452 4.3125 14.1771 3.66967 13.8428L2.74697 15.6172ZM3.64704 16.4214C3.89252 16.7391 4.08883 17.1414 4.22004 17.6499L6.1566 17.1501C5.96782 16.4186 5.66412 15.7609 5.22961 15.1986L3.64704 16.4214ZM4.22797 17.6788C4.37687 18.1917 4.45832 18.7954 4.45832 19.5H6.45832C6.45832 18.6446 6.35977 17.8483 6.14867 17.1212L4.22797 17.6788ZM4.45832 19.5C4.45832 21.1229 4.52896 22.4742 4.67798 23.5386L6.65866 23.2614C6.52768 22.3258 6.45832 21.0771 6.45832 19.5H4.45832ZM4.68088 23.558C4.85688 24.658 5.22009 25.626 5.89121 26.2971L7.30543 24.8829C7.05655 24.634 6.79976 24.142 6.65576 23.242L4.68088 23.558ZM5.90642 26.312C6.62641 27.002 7.62005 27.2934 8.71669 27.3391L8.79995 25.3409C7.9766 25.3066 7.53023 25.098 7.29023 24.868L5.90642 26.312ZM8.75832 27.34H8.90832V25.34H8.75832V27.34ZM8.90832 27.34C8.8856 27.34 8.84031 27.3358 8.78443 27.3135C8.72739 27.2907 8.68206 27.2579 8.65121 27.2271L10.0654 25.8129C9.74563 25.4931 9.33568 25.34 8.90832 25.34V27.34ZM8.65121 27.2271C8.60955 27.1854 8.57676 27.1338 8.55699 27.0811C8.53838 27.0315 8.53832 26.9999 8.53832 27H10.5383C10.5383 26.5857 10.4062 26.1536 10.0654 25.8129L8.65121 27.2271ZM8.53832 27V28.11H10.5383V27H8.53832ZM8.53832 28.11C8.53832 28.1101 8.53838 28.0785 8.55699 28.0289C8.57676 27.9762 8.60955 27.9246 8.65121 27.8829L10.0654 29.2971C10.4062 28.9564 10.5383 28.5243 10.5383 28.11H8.53832ZM8.65122 27.8829C8.69287 27.8412 8.74449 27.8084 8.7972 27.7887C8.82161 27.7795 8.84199 27.7748 8.85642 27.7724C8.86355 27.7712 8.86905 27.7706 8.87274 27.7703C8.87459 27.7701 8.87599 27.7701 8.87692 27.77C8.87739 27.77 8.87774 27.77 8.87797 27.77C8.87809 27.77 8.87817 27.77 8.87823 27.77C8.87826 27.77 8.87828 27.77 8.8783 27.77C8.87831 27.77 8.87831 27.77 8.87832 27.77C8.87832 27.77 8.87832 27.77 8.87832 27.77V29.77C9.29258 29.77 9.72469 29.6378 10.0654 29.2971L8.65122 27.8829ZM8.87832 27.77H8.72832V29.77H8.87832V27.77ZM22.1768 1.29L21.7295 2.18447L21.7388 2.18899L22.1768 1.29ZM24.9368 5.7L23.9504 5.8644L23.9518 5.87326L23.9535 5.88209L24.9368 5.7ZM25.6268 11.82L24.7197 12.2411L24.7259 12.2543L24.7323 12.2672L25.6268 11.82ZM26.8868 13.2L26.346 14.0412L26.368 14.0553L26.3906 14.0682L26.8868 13.2ZM27.0968 13.32L27.6358 12.4777L27.6147 12.4642L27.5929 12.4518L27.0968 13.32ZM27.0968 16.17L26.5823 15.3125L26.5745 15.3172L26.5668 15.322L27.0968 16.17ZM26.8568 16.32L26.3267 15.4719L26.316 15.4788L26.8568 16.32ZM25.6268 17.7L26.5338 18.1211L25.6268 17.7ZM24.9368 23.82L23.9535 23.6379L23.9521 23.6452L23.9509 23.6526L24.9368 23.82ZM24.0068 26.49L23.1534 25.9685L23.1472 25.9789L24.0068 26.49ZM22.1768 28.17L21.7388 27.271L21.7248 27.2778L21.711 27.2851L22.1768 28.17ZM18.6368 28.59L17.9297 29.2971L18.6368 28.59ZM18.6368 26.52L19.3439 27.2271V27.2271L18.6368 26.52ZM19.2368 26.34V27.34H19.2572L19.2775 27.3392L19.2368 26.34ZM21.3968 25.59L20.7049 24.868L20.6972 24.8754L20.6897 24.8829L21.3968 25.59ZM22.3268 23.43L21.3393 23.272L21.338 23.2803L21.3368 23.2886L22.3268 23.43ZM23.1068 16.53L22.2078 16.092L22.2032 16.1014L22.1988 16.1109L23.1068 16.53ZM24.7868 14.76L25.2623 15.6397L26.7738 14.8227L25.3168 13.912L24.7868 14.76ZM23.5568 13.65L22.748 14.2382L22.7566 14.2499L22.7655 14.2614L23.5568 13.65ZM22.8068 12.09L21.8385 12.3399L21.8433 12.3587L21.8489 12.3773L22.8068 12.09ZM22.3268 6.09L21.3364 6.22865L21.338 6.23991L21.3398 6.25113L22.3268 6.09ZM21.4268 3.9L20.7048 4.5919L20.7121 4.59958L20.7197 4.60711L21.4268 3.9ZM19.2668 3.15L19.2872 2.15021L19.277 2.15H19.2668V3.15ZM19.2668 1.72C20.3484 1.72 21.1516 1.89546 21.7295 2.18443L22.624 0.395572C21.6819 -0.0754616 20.5451 -0.280001 19.2668 -0.280001V1.72ZM21.7388 2.18899C22.3449 2.48427 22.8077 2.91011 23.1472 3.48107L24.8663 2.45892C24.3258 1.54989 23.5686 0.855725 22.6147 0.391009L21.7388 2.18899ZM23.1472 3.48107C23.5091 4.08976 23.7855 4.87497 23.9504 5.8644L25.9232 5.5356C25.7281 4.36502 25.3844 3.33023 24.8663 2.45892L23.1472 3.48107ZM23.9535 5.88209C24.1398 6.88832 24.2368 8.06534 24.2368 9.42H26.2368C26.2368 7.97466 26.1337 6.67168 25.92 5.51791L23.9535 5.88209ZM24.2368 9.42C24.2368 10.5189 24.3703 11.4884 24.7197 12.2411L26.5338 11.3989C26.3632 11.0316 26.2368 10.4011 26.2368 9.42H24.2368ZM24.7323 12.2672C25.0978 12.9982 25.6448 13.5904 26.346 14.0412L27.4275 12.3588C27.0087 12.0896 26.7157 11.7618 26.5212 11.3728L24.7323 12.2672ZM26.3906 14.0682L26.6006 14.1882L27.5929 12.4518L27.3829 12.3318L26.3906 14.0682ZM26.5577 14.1623C26.724 14.2687 26.7957 14.3518 26.8238 14.3946C26.8453 14.4272 26.8468 14.4422 26.8468 14.46H28.8468C28.8468 13.5649 28.3115 12.9102 27.6358 12.4777L26.5577 14.1623ZM26.8468 14.46V15.06H28.8468V14.46H26.8468ZM26.8468 15.06C26.8468 15.0773 26.8457 15.0854 26.8307 15.1076C26.8084 15.1407 26.7438 15.2156 26.5823 15.3125L27.6113 17.0275C28.3015 16.6133 28.8468 15.9638 28.8468 15.06H26.8468ZM26.5668 15.322L26.3268 15.472L27.3868 17.168L27.6268 17.018L26.5668 15.322ZM26.316 15.4788C25.6096 15.933 25.0658 16.5335 24.7197 17.2789L26.5338 18.1211C26.7077 17.7465 26.9839 17.427 27.3975 17.1612L26.316 15.4788ZM24.7197 17.2789C24.3703 18.0316 24.2368 19.0011 24.2368 20.1H26.2368C26.2368 19.1189 26.3632 18.4884 26.5338 18.1211L24.7197 17.2789ZM24.2368 20.1C24.2368 21.4547 24.1398 22.6317 23.9535 23.6379L25.92 24.0021C26.1337 22.8483 26.2368 21.5453 26.2368 20.1H24.2368ZM23.9509 23.6526C23.7866 24.6201 23.5117 25.3823 23.1535 25.9685L24.86 27.0114C25.3818 26.1577 25.7269 25.1399 25.9226 23.9874L23.9509 23.6526ZM23.1472 25.9789C22.8077 26.5499 22.3449 26.9757 21.7388 27.271L22.6147 29.069C23.5686 28.6043 24.3258 27.9101 24.8663 27.0011L23.1472 25.9789ZM21.711 27.2851C21.1361 27.5877 20.3488 27.77 19.2968 27.77V29.77C20.5647 29.77 21.6975 29.5523 22.6425 29.0549L21.711 27.2851ZM19.2968 27.77H19.1168V29.77H19.2968V27.77ZM19.1168 27.77C19.1166 27.77 19.1483 27.7701 19.1979 27.7887C19.2506 27.8084 19.3022 27.8412 19.3439 27.8829L17.9297 29.2971C18.2704 29.6378 18.7025 29.77 19.1168 29.77V27.77ZM19.3439 27.8829C19.3855 27.9246 19.4183 27.9762 19.4381 28.0289C19.4472 28.0533 19.452 28.0737 19.4544 28.0881C19.4556 28.0952 19.4562 28.1007 19.4565 28.1044C19.4566 28.1063 19.4567 28.1077 19.4567 28.1086C19.4567 28.1091 19.4567 28.1094 19.4568 28.1096C19.4568 28.1098 19.4568 28.1099 19.4568 28.1099C19.4568 28.1099 19.4568 28.11 19.4568 28.11C19.4568 28.11 19.4568 28.11 19.4568 28.11C19.4568 28.11 19.4568 28.11 19.4568 28.11H17.4568C17.4568 28.5243 17.5889 28.9564 17.9297 29.2971L19.3439 27.8829ZM19.4568 28.11V27H17.4568V28.11H19.4568ZM19.4568 27C19.4568 26.9999 19.4568 27.0001 19.4568 27C19.4568 26.9999 19.4568 27.0001 19.4568 27C19.4568 27 19.4568 27 19.4568 27C19.4568 27 19.4568 27.0001 19.4568 27.0001C19.4568 27.0001 19.4568 27.0002 19.4568 27.0004C19.4567 27.0006 19.4567 27.0009 19.4567 27.0014C19.4567 27.0023 19.4566 27.0037 19.4565 27.0056C19.4562 27.0093 19.4556 27.0148 19.4544 27.0219C19.452 27.0363 19.4472 27.0567 19.4381 27.0811C19.4183 27.1338 19.3855 27.1854 19.3439 27.2271L17.9297 25.8129C17.5889 26.1536 17.4568 26.5857 17.4568 27H19.4568ZM19.3439 27.2271C19.3022 27.2688 19.2506 27.3016 19.1979 27.3213C19.1735 27.3305 19.1531 27.3352 19.1387 27.3376C19.1315 27.3388 19.126 27.3394 19.1223 27.3397C19.1205 27.3399 19.1191 27.3399 19.1182 27.34C19.1177 27.34 19.1173 27.34 19.1171 27.34C19.117 27.34 19.1169 27.34 19.1168 27.34C19.1168 27.34 19.1168 27.34 19.1168 27.34C19.1168 27.34 19.1168 27.34 19.1168 27.34C19.1168 27.34 19.1168 27.34 19.1168 27.34V25.34C18.7025 25.34 18.2704 25.4722 17.9297 25.8129L19.3439 27.2271ZM19.1168 27.34H19.2368V25.34H19.1168V27.34ZM19.2775 27.3392C20.3843 27.294 21.3946 27.0064 22.1039 26.2971L20.6897 24.8829C20.4789 25.0936 20.0492 25.306 19.196 25.3408L19.2775 27.3392ZM22.0887 26.312C22.7923 25.6377 23.1599 24.6691 23.3167 23.5714L21.3368 23.2886C21.2136 24.1509 20.9612 24.6223 20.7049 24.868L22.0887 26.312ZM23.3142 23.588C23.4859 22.5148 23.5668 21.1563 23.5668 19.53H21.5668C21.5668 21.1037 21.4876 22.3452 21.3393 23.272L23.3142 23.588ZM23.5668 19.53C23.5668 18.3982 23.7353 17.5545 24.0147 16.9491L22.1988 16.1109C21.7583 17.0655 21.5668 18.2218 21.5668 19.53H23.5668ZM24.0057 16.968C24.2973 16.3695 24.7122 15.937 25.2623 15.6397L24.3112 13.8803C23.3813 14.383 22.6762 15.1305 22.2078 16.092L24.0057 16.968ZM25.3168 13.912C24.9353 13.6736 24.6143 13.3832 24.348 13.0386L22.7655 14.2614C23.1792 14.7968 23.6782 15.2464 24.2568 15.608L25.3168 13.912ZM24.3655 13.0618C24.121 12.7256 23.917 12.3108 23.7646 11.8027L21.8489 12.3773C22.0565 13.0692 22.3525 13.6944 22.748 14.2382L24.3655 13.0618ZM23.775 11.8401C23.6401 11.3172 23.5668 10.7033 23.5668 9.99H21.5668C21.5668 10.8367 21.6534 11.6228 21.8385 12.3399L23.775 11.8401ZM23.5668 9.99C23.5668 8.34517 23.4861 6.98474 23.3137 5.92887L21.3398 6.25113C21.4874 7.15526 21.5668 8.39482 21.5668 9.99H23.5668ZM23.3171 5.95135C23.1626 4.84763 22.8116 3.87066 22.1339 3.19289L20.7197 4.60711C20.9619 4.84934 21.2109 5.33237 21.3364 6.22865L23.3171 5.95135ZM22.1487 3.20809C21.4335 2.4617 20.4073 2.17307 19.2872 2.15021L19.2464 4.14979C20.0862 4.16693 20.5001 4.3783 20.7048 4.5919L22.1487 3.20809ZM19.2668 2.15H19.1168V4.15H19.2668V2.15ZM19.1168 2.15C19.1166 2.15 19.1483 2.15006 19.1979 2.16867C19.2506 2.18843 19.3022 2.22123 19.3439 2.26289L17.9297 3.67711C18.2704 4.01784 18.7025 4.15 19.1168 4.15V2.15ZM19.3439 2.26289C19.3855 2.30455 19.4183 2.35617 19.4381 2.40888C19.4472 2.43329 19.452 2.45367 19.4544 2.4681C19.4556 2.47522 19.4562 2.48073 19.4565 2.48442C19.4566 2.48627 19.4567 2.48767 19.4567 2.4886C19.4567 2.48906 19.4567 2.48942 19.4568 2.48965C19.4568 2.48977 19.4568 2.48985 19.4568 2.48991C19.4568 2.48994 19.4568 2.48996 19.4568 2.48998C19.4568 2.48998 19.4568 2.48999 19.4568 2.48999C19.4568 2.49 19.4568 2.49 19.4568 2.49H17.4568C17.4568 2.90426 17.5889 3.33637 17.9297 3.67711L19.3439 2.26289ZM19.4568 2.49V1.38H17.4568V2.49H19.4568ZM19.4568 1.38C19.4568 1.37986 19.4567 1.41149 19.4381 1.46112C19.4183 1.51383 19.3855 1.56545 19.3439 1.60711L17.9297 0.192891C17.5889 0.533628 17.4568 0.965745 17.4568 1.38H19.4568ZM19.3439 1.60711C19.3022 1.64877 19.2506 1.68156 19.1979 1.70133C19.1483 1.71994 19.1166 1.72 19.1168 1.72V-0.280001C18.7025 -0.280001 18.2704 -0.147844 17.9297 0.192891L19.3439 1.60711ZM19.1168 1.72H19.2668V-0.280001H19.1168V1.72Z" fill="#EF233C"/>
</svg>
