<svg width="13" height="25" viewBox="0 0 13 25" fill="none" xmlns="http://www.w3.org/2000/svg">
<path d="M6.23285 1.87082L6.25 1.88773L6.26715 1.87082C8.13779 0.0255082 10.333 0.00758911 11.9215 0.0276049L11.9218 0.0031928L11.9215 0.027605C12.2288 0.0314418 12.4756 0.281673 12.4756 0.589081V2.54138C12.4756 2.85231 12.2228 3.10335 11.9117 3.10251C11.2308 3.10078 10.2023 3.13984 9.34324 3.45532C8.91348 3.61314 8.52461 3.84069 8.24307 4.16834C7.96113 4.49646 7.78809 4.92356 7.78809 5.47761V10.9375V10.9619H7.8125H9.57031C9.88041 10.9619 10.1318 11.2133 10.1318 11.5234V13.4765C10.1318 13.7866 9.88041 14.0381 9.57031 14.0381H7.8125H7.78809V14.0625V19.5312C7.78809 20.0856 7.9668 20.5138 8.25561 20.8432C8.54399 21.1722 8.94097 21.4014 9.3759 21.5605C10.2454 21.8786 11.2727 21.9188 11.9073 21.9112C12.2202 21.9075 12.4756 22.1597 12.4756 22.4726V24.4084C12.4756 24.717 12.2267 24.9679 11.9182 24.9699C10.2063 24.9811 8.10198 24.9391 6.26715 23.1291L6.25 23.1122L6.23285 23.1291C4.36221 24.9744 2.16696 24.9923 0.578529 24.9723C0.271209 24.9685 0.0244141 24.7183 0.0244141 24.4109V22.4586C0.0244141 22.1476 0.277243 21.8966 0.588316 21.8974C1.26911 21.8991 2.29768 21.8623 3.15671 21.5491C3.58647 21.3924 3.97536 21.1659 4.25691 20.8391C4.53887 20.5118 4.71191 20.0853 4.71191 19.5312V14.0625V14.0381H4.6875H2.92969C2.61959 14.0381 2.36816 13.7866 2.36816 13.4765V11.5234C2.36816 11.2133 2.61959 10.9619 2.92969 10.9619H4.6875H4.71191V10.9375V5.47761C4.71191 4.92326 4.5332 4.49451 4.24441 4.16424C3.95605 3.83446 3.55909 3.60415 3.12415 3.44391C2.25468 3.12358 1.22737 3.08112 0.592726 3.08869C0.279802 3.09244 0.0244141 2.84017 0.0244141 2.52726V0.591474C0.0244141 0.28285 0.273272 0.031962 0.581848 0.0299501C2.2937 0.0188196 4.39802 0.0608266 6.23285 1.87082Z" fill="#EF233C" stroke="#EF233C" stroke-width="0.0488281"/>
</svg>
