<svg width="32" height="43" viewBox="0 0 32 43" fill="none" xmlns="http://www.w3.org/2000/svg">
<path d="M14.9321 12.1484V12.206L14.9735 12.166C16.3842 10.8032 19.0944 10.6344 20.8499 12.6933L20.8636 12.7094L20.8815 12.6981C21.8256 12.1026 22.9225 12.0574 23.8805 12.3558C24.839 12.6544 25.6556 13.296 26.0395 14.0698L26.0477 14.0863L26.0658 14.083C28.1075 13.7072 29.5826 14.1672 30.5482 15.246C31.5151 16.3262 31.9756 18.0318 31.9756 20.1562C31.9756 20.2664 31.9717 20.5261 31.9678 20.7924L31.9672 20.8285C31.9631 21.1068 31.959 21.3854 31.9593 21.5001C31.9663 24.0973 31.3207 25.708 30.5972 27.1615C30.4827 27.3917 30.366 27.6181 30.2497 27.844C29.6316 29.0441 29.0216 30.2285 28.7667 31.8878C28.6179 32.8563 27.7878 33.5693 26.8155 33.5693H12.5368L12.5368 33.5692L12.5217 33.5692C11.0006 33.5682 9.54923 32.6838 8.89025 31.1932L8.89021 31.1931C8.34837 29.9792 7.32616 27.9747 6.14447 26.1462C5.55363 25.232 4.92259 24.3612 4.29147 23.6551C3.66075 22.9494 3.02821 22.4061 2.43401 22.1495C0.924636 21.4976 0.025076 20.3641 0.0244144 18.8125C0.0232547 15.9555 2.93168 13.9918 5.56599 15.1296C6.2608 15.4298 6.95189 15.826 7.63798 16.3157L7.67658 16.3432V16.2958V3.7625C7.67658 1.80574 9.37837 0.0244141 11.3043 0.0244141C13.2589 0.0244141 14.9321 1.74707 14.9321 3.7625V12.1484ZM11.3333 34.9619H27.3333C28.4243 34.9619 29.3089 35.8532 29.3089 36.9531V40.9844C29.3089 42.0843 28.4243 42.9756 27.3333 42.9756H11.3333C10.2424 42.9756 9.35775 42.0843 9.35775 40.9844V36.9531C9.35775 35.8532 10.2424 34.9619 11.3333 34.9619ZM25.3333 37.2646C24.3992 37.2646 23.6423 38.0278 23.6423 38.9688C23.6423 39.9097 24.3992 40.6729 25.3333 40.6729C26.2675 40.6729 27.0244 39.9097 27.0244 38.9688C27.0244 38.0278 26.2675 37.2646 25.3333 37.2646Z" fill="#EF233C" stroke="#EF233C" stroke-width="0.0488281"/>
</svg>
