<svg id="Capa_3" data-name="Capa 3" xmlns="http://www.w3.org/2000/svg" viewBox="0 0 477.21 405.94"><defs><style>.cls-1{fill:#008a94;}.cls-2{fill:#0aa;}.cls-3{fill:#012b39;}.cls-4{fill:#ff3301;}.cls-5{fill:#8f0117;}.cls-6{fill:#fda92c;}.cls-7{fill:#fe3f2d;}.cls-8{fill:#ff6609;}.cls-9{fill:#ff7e4b;}.cls-10{fill:#fed795;}</style></defs><title>Vector 2</title><path class="cls-1" d="M838.83,890.4,907,859.27v62.25Z" transform="translate(-497.98 -546.83)"/><path class="cls-2" d="M907,859.15l-68.18,31.13V828Z" transform="translate(-497.98 -546.83)"/><path class="cls-2" d="M975.19,765.42,907,796.55V734.3Z" transform="translate(-497.98 -546.83)"/><path class="cls-3" d="M838.83,827.91,907,796.79V859Z" transform="translate(-497.98 -546.83)"/><path class="cls-3" d="M770.66,921.64l68.18-31.12v62.25Z" transform="translate(-497.98 -546.83)"/><path class="cls-3" d="M907,796.67l-68.18,31.12V765.54Z" transform="translate(-497.98 -546.83)"/><path class="cls-2" d="M838.83,765.42,907,734.3v62.25Z" transform="translate(-497.98 -546.83)"/><path class="cls-4" d="M907,734.18,838.84,765.3V703.05Z" transform="translate(-497.98 -546.83)"/><path class="cls-4" d="M838.83,702.93,907,671.81v62.25Z" transform="translate(-497.98 -546.83)"/><path class="cls-1" d="M907,671.69l-68.18,31.12V640.56Z" transform="translate(-497.98 -546.83)"/><path class="cls-1" d="M838.83,640.44,907,609.32v62.25Z" transform="translate(-497.98 -546.83)"/><path class="cls-2" d="M770.68,609.2,702.5,640.32V578.07Z" transform="translate(-497.98 -546.83)"/><path class="cls-3" d="M838.85,890.4l-68.18,31.12V859.27Z" transform="translate(-497.98 -546.83)"/><path class="cls-2" d="M770.66,859.16,838.84,828v62.25Z" transform="translate(-497.98 -546.83)"/><path class="cls-5" d="M838.85,827.91,770.67,859V796.79Z" transform="translate(-497.98 -546.83)"/><path class="cls-5" d="M770.66,796.67l68.18-31.13v62.25Z" transform="translate(-497.98 -546.83)"/><path class="cls-5" d="M838.85,765.42l-68.18,31.13V734.3Z" transform="translate(-497.98 -546.83)"/><path class="cls-4" d="M770.66,734.18l68.18-31.13V765.3Z" transform="translate(-497.98 -546.83)"/><path class="cls-6" d="M838.85,702.93l-68.18,31.13V671.81Z" transform="translate(-497.98 -546.83)"/><path class="cls-3" d="M770.66,671.69l68.18-31.13v62.25Z" transform="translate(-497.98 -546.83)"/><path class="cls-3" d="M838.85,640.44l-68.18,31.13V609.32Z" transform="translate(-497.98 -546.83)"/><path class="cls-2" d="M770.66,609.2l68.18-31.13v62.25Z" transform="translate(-497.98 -546.83)"/><path class="cls-2" d="M702.49,578l68.18-31.12v62.25Z" transform="translate(-497.98 -546.83)"/><path class="cls-7" d="M702.49,890.4l68.18-31.13v62.25Z" transform="translate(-497.98 -546.83)"/><path class="cls-7" d="M770.68,859.15,702.5,890.28V828Z" transform="translate(-497.98 -546.83)"/><path class="cls-8" d="M702.51,890.4l-68.18,31.12V859.27Z" transform="translate(-497.98 -546.83)"/><path class="cls-7" d="M702.49,827.91l68.18-31.12V859Z" transform="translate(-497.98 -546.83)"/><path class="cls-7" d="M770.68,796.67,702.5,827.79V765.54Z" transform="translate(-497.98 -546.83)"/><path class="cls-8" d="M702.49,765.42l68.18-31.12v62.25Z" transform="translate(-497.98 -546.83)"/><path class="cls-6" d="M770.68,734.18,702.5,765.3V703.05Z" transform="translate(-497.98 -546.83)"/><path class="cls-6" d="M702.49,702.93l68.18-31.12v62.25Z" transform="translate(-497.98 -546.83)"/><path class="cls-9" d="M770.68,671.69,702.5,702.81V640.56Z" transform="translate(-497.98 -546.83)"/><path class="cls-9" d="M702.49,640.44l68.18-31.12v62.25Z" transform="translate(-497.98 -546.83)"/><path class="cls-4" d="M770.68,734.18,702.5,765.3V703.05Z" transform="translate(-497.98 -546.83)"/><path class="cls-4" d="M702.49,702.93l68.18-31.12v62.25Z" transform="translate(-497.98 -546.83)"/><path class="cls-1" d="M770.68,671.69,702.5,702.81V640.56Z" transform="translate(-497.98 -546.83)"/><path class="cls-1" d="M702.49,640.44l68.18-31.12v62.25Z" transform="translate(-497.98 -546.83)"/><path class="cls-5" d="M702.51,827.91,634.33,859V796.79Z" transform="translate(-497.98 -546.83)"/><path class="cls-5" d="M634.32,796.67l68.18-31.13v62.25Z" transform="translate(-497.98 -546.83)"/><path class="cls-5" d="M634.32,859.16,702.5,828v62.25Z" transform="translate(-497.98 -546.83)"/><path class="cls-5" d="M634.32,921.64l68.18-31.12v62.25Z" transform="translate(-497.98 -546.83)"/><path class="cls-5" d="M702.51,765.42l-68.18,31.13V734.3Z" transform="translate(-497.98 -546.83)"/><path class="cls-4" d="M634.32,734.18l68.18-31.13V765.3Z" transform="translate(-497.98 -546.83)"/><path class="cls-6" d="M702.51,702.93l-68.18,31.13V671.81Z" transform="translate(-497.98 -546.83)"/><path class="cls-3" d="M634.32,671.69l68.18-31.13v62.25Z" transform="translate(-497.98 -546.83)"/><path class="cls-3" d="M702.51,640.44l-68.18,31.13V609.32Z" transform="translate(-497.98 -546.83)"/><path class="cls-2" d="M634.32,609.2l68.18-31.13v62.25Z" transform="translate(-497.98 -546.83)"/><path class="cls-7" d="M566.15,890.4l68.18-31.13v62.25Z" transform="translate(-497.98 -546.83)"/><path class="cls-7" d="M634.34,859.15l-68.18,31.13V828Z" transform="translate(-497.98 -546.83)"/><path class="cls-7" d="M566.15,827.91l68.18-31.12V859Z" transform="translate(-497.98 -546.83)"/><path class="cls-7" d="M634.34,796.67l-68.18,31.12V765.54Z" transform="translate(-497.98 -546.83)"/><path class="cls-8" d="M566.15,765.42l68.18-31.12v62.25Z" transform="translate(-497.98 -546.83)"/><path class="cls-6" d="M634.34,734.18,566.16,765.3V703.05Z" transform="translate(-497.98 -546.83)"/><path class="cls-6" d="M566.15,702.93l68.18-31.12v62.25Z" transform="translate(-497.98 -546.83)"/><path class="cls-6" d="M498,734.18l68.18-31.13V765.3Z" transform="translate(-497.98 -546.83)"/><path class="cls-9" d="M634.34,671.69l-68.18,31.12V640.56Z" transform="translate(-497.98 -546.83)"/><path class="cls-9" d="M566.15,640.44l68.18-31.12v62.25Z" transform="translate(-497.98 -546.83)"/><path class="cls-6" d="M634.34,609.2l-68.18,31.12V578.07Z" transform="translate(-497.98 -546.83)"/><path class="cls-9" d="M498,859.16,566.16,828v62.25Z" transform="translate(-497.98 -546.83)"/><path class="cls-9" d="M498,796.67l68.18-31.13v62.25Z" transform="translate(-497.98 -546.83)"/><path class="cls-10" d="M498,609.2l68.18-31.13v62.25Z" transform="translate(-497.98 -546.83)"/></svg>