<svg id="Capa_1" data-name="Capa 1" xmlns="http://www.w3.org/2000/svg" viewBox="0 0 272.7 405.94"><defs><style>.cls-1{fill:#008a94;}.cls-2{fill:#0aa;}.cls-3{fill:#012b39;}.cls-4{fill:#ff3301;}.cls-5{fill:#8f0117;}.cls-6{fill:#fda92c;}.cls-7{fill:#fe3f2d;}.cls-8{fill:#ff6609;}.cls-9{fill:#ff7e4b;}.cls-10{fill:#fed795;}</style></defs><title>Vector 1</title><path class="cls-1" d="M825.2,832.82l68.18-31.13v62.25Z" transform="translate(-620.69 -458)"/><path class="cls-2" d="M893.39,801.57,825.21,832.7V770.45Z" transform="translate(-620.69 -458)"/><path class="cls-3" d="M825.2,770.33l68.18-31.13v62.25Z" transform="translate(-620.69 -458)"/><path class="cls-3" d="M893.39,739.08l-68.18,31.13V708Z" transform="translate(-620.69 -458)"/><path class="cls-2" d="M825.2,707.84l68.18-31.13V739Z" transform="translate(-620.69 -458)"/><path class="cls-4" d="M893.39,676.59l-68.18,31.13V645.47Z" transform="translate(-620.69 -458)"/><path class="cls-4" d="M825.2,645.35l68.18-31.13v62.25Z" transform="translate(-620.69 -458)"/><path class="cls-1" d="M893.39,614.1l-68.18,31.13V583Z" transform="translate(-620.69 -458)"/><path class="cls-1" d="M825.2,582.86l68.18-31.13V614Z" transform="translate(-620.69 -458)"/><path class="cls-2" d="M893.39,489.12l-68.18,31.13V458Z" transform="translate(-620.69 -458)"/><path class="cls-3" d="M825.22,832.82,757,863.94V801.69Z" transform="translate(-620.69 -458)"/><path class="cls-2" d="M757,801.57l68.18-31.12V832.7Z" transform="translate(-620.69 -458)"/><path class="cls-5" d="M825.22,770.33,757,801.45V739.2Z" transform="translate(-620.69 -458)"/><path class="cls-5" d="M757,739.08,825.21,708v62.25Z" transform="translate(-620.69 -458)"/><path class="cls-5" d="M825.22,707.84,757,739V676.71Z" transform="translate(-620.69 -458)"/><path class="cls-4" d="M757,676.59l68.18-31.12v62.25Z" transform="translate(-620.69 -458)"/><path class="cls-6" d="M825.22,645.35,757,676.47V614.22Z" transform="translate(-620.69 -458)"/><path class="cls-3" d="M757,614.1,825.21,583v62.25Z" transform="translate(-620.69 -458)"/><path class="cls-3" d="M825.22,582.86,757,614V551.73Z" transform="translate(-620.69 -458)"/><path class="cls-2" d="M757,551.61l68.18-31.12v62.25Z" transform="translate(-620.69 -458)"/><path class="cls-7" d="M688.86,832.82,757,801.69v62.25Z" transform="translate(-620.69 -458)"/><path class="cls-7" d="M757.05,801.57,688.87,832.7V770.45Z" transform="translate(-620.69 -458)"/><path class="cls-7" d="M688.86,770.33,757,739.2v62.25Z" transform="translate(-620.69 -458)"/><path class="cls-7" d="M757.05,739.08l-68.18,31.13V708Z" transform="translate(-620.69 -458)"/><path class="cls-8" d="M688.86,707.84,757,676.71V739Z" transform="translate(-620.69 -458)"/><path class="cls-6" d="M757.05,676.59l-68.18,31.13V645.47Z" transform="translate(-620.69 -458)"/><path class="cls-6" d="M688.86,645.35,757,614.22v62.25Z" transform="translate(-620.69 -458)"/><path class="cls-9" d="M757.05,614.1l-68.18,31.13V583Z" transform="translate(-620.69 -458)"/><path class="cls-9" d="M688.86,582.86,757,551.73V614Z" transform="translate(-620.69 -458)"/><path class="cls-6" d="M757.05,551.61l-68.18,31.13V520.49Z" transform="translate(-620.69 -458)"/><path class="cls-9" d="M620.69,801.57l68.18-31.12V832.7Z" transform="translate(-620.69 -458)"/><path class="cls-9" d="M620.69,739.08,688.87,708v62.25Z" transform="translate(-620.69 -458)"/><path class="cls-10" d="M620.69,551.61l68.18-31.12v62.25Z" transform="translate(-620.69 -458)"/></svg>